<svg id="Layer_1" data-name="Layer 1" xmlns="http://www.w3.org/2000/svg" viewBox="0 0 512 512"><defs><style>.cls-1{fill:#dde5e8;}.cls-2{fill:#71c6c4;}.cls-3{fill:#afc3c9;}.cls-4{fill:#f4607f;}.cls-5{fill:#cad8dd;}</style></defs><title>calendar-flat</title><path class="cls-1" d="M0,396.8a64,64,0,0,0,64,64H448a64,64,0,0,0,64-64V179.2H0Z"/><path class="cls-2" d="M512,179.2V102.4a64,64,0,0,0-64-64H64a64,64,0,0,0-64,64v76.8Z"/><path class="cls-1" d="M179.2,64a38.4,38.4,0,0,1-38.4,38.4h0A38.4,38.4,0,0,1,102.4,64V38.4A38.4,38.4,0,0,1,140.8,0h0a38.4,38.4,0,0,1,38.4,38.4Z"/><path class="cls-1" d="M409.6,64a38.4,38.4,0,0,1-38.4,38.4h0A38.4,38.4,0,0,1,332.8,64V38.4A38.4,38.4,0,0,1,371.2,0h0a38.4,38.4,0,0,1,38.4,38.4Z"/><path class="cls-3" d="M409.6,332.8H384V281.6h25.6a12.8,12.8,0,0,0,0-25.6H384V230.4a12.8,12.8,0,0,0-25.6,0V256H307.2V230.4a12.8,12.8,0,1,0-25.6,0V256H230.4V230.4a12.8,12.8,0,0,0-25.6,0V256H153.6V230.4a12.8,12.8,0,1,0-25.6,0V256H102.4a12.8,12.8,0,0,0,0,25.6H128v51.2H102.4a12.8,12.8,0,0,0,0,25.6H128V384a12.8,12.8,0,1,0,25.6,0V358.4h51.2V384a12.8,12.8,0,0,0,25.6,0V358.4h51.2V384a12.8,12.8,0,0,0,25.6,0V358.4h51.2V384a12.8,12.8,0,0,0,25.6,0V358.4h25.6a12.8,12.8,0,0,0,0-25.6Zm-256,0V281.6h51.2v51.2Zm76.8,0V281.6h51.2v51.2Zm76.8,0V281.6h51.2v51.2Z"/><rect class="cls-4" x="153.6" y="281.6" width="51.2" height="51.2"/><path class="cls-5" d="M448,460.8H64a64,64,0,0,1-64-64v32A83.2,83.2,0,0,0,83.2,512H428.8A83.2,83.2,0,0,0,512,428.8v-32A64,64,0,0,1,448,460.8Z"/></svg>